<svg width="263" height="118" viewBox="0 0 263 118" fill="none" xmlns="http://www.w3.org/2000/svg">
<path d="M180.9 104.099C151.955 104.099 122.826 106.847 94.7962 111.152C87.1018 112.251 65.6673 117.198 59.6217 117.198C52.7517 117.198 50.3701 112.801 50.3701 107.946C50.3701 104.099 53.3929 100.985 58.5225 99.7023C74.5526 95.2139 143.711 93.8399 165.237 93.8399C172.565 93.8399 207.464 93.0155 207.464 99.7023C207.464 106.847 187.221 104.099 180.9 104.099ZM226.792 104.557C222.578 104.099 217.907 103.458 217.907 99.7023C217.907 96.8627 220.746 94.7559 224.319 94.7559C229.265 94.7559 236.044 95.7635 236.044 99.8855C236.044 103.733 230.914 104.557 226.792 104.557Z" fill="white"/>
<path d="M34.768 65.7284C32.0095 74.4862 27.6932 92.8859 19.3346 94.53C9.17835 96.5275 4.12659 80.8106 2.19971 71.0139C0.0253482 59.9589 -3.46494 10.8871 8.57873 8.51825C12.3536 7.77579 15.8116 10.6431 16.6778 15.0472C17.1551 17.4739 13.1275 41.1381 13.1269 58.2222C13.0024 80.3718 20.3355 79.2095 25.8393 60.2028C28.7437 50.7629 27.019 33.9248 32.9509 32.758C38.6132 31.6443 40.86 36.8971 42.0267 42.829C42.5924 45.7051 43.8742 49.374 45.5699 52.7746C59.2068 80.3395 71.7252 69.9421 67.0583 46.2143C64.5303 33.3617 53.6866 19.9976 51.7774 10.2908C50.4515 3.54989 53.6032 1.0629 58.2769 0.143658C70.4104 -2.24284 78.6207 25.7359 80.8658 37.1504C84.4721 55.4855 80.5946 82.761 63.1583 86.1905C51.4741 88.4886 41.9195 76.458 34.768 65.7284Z" fill="white"/>
<path d="M87.0867 38.0217C86.733 33.1798 87.3582 20.3677 93.1137 19.9472C96.4025 19.7069 98.5125 20.9304 99.0469 24.4733C99.5879 28.1075 98.3774 34.1658 98.5643 36.7238C98.9448 41.9312 100.97 47.0183 101.283 51.3121C101.464 53.7787 100.149 55.8954 97.7735 56.0689C90.2822 56.6163 87.554 44.4166 87.0867 38.0217ZM101.711 9.39983C101.971 12.9627 100.071 15.857 96.1422 16.144C92.3966 16.4177 88.0853 13.9773 87.8049 10.1404C87.5513 6.66881 90.2857 2.61156 94.0313 2.33788C98.4164 2.01748 101.431 5.56285 101.711 9.39983Z" fill="white"/>
<path d="M123.163 42.3535C120.444 43.7835 118.005 45.4826 114.433 45.5558C107.748 45.6927 103.772 39.4524 103.639 32.9502C103.414 21.9605 114.778 8.71772 125.493 8.4982C129.797 8.41002 133.141 10.632 136.309 13.2241C138.541 14.8275 138.586 17.0254 138.639 19.5897C138.817 28.2899 135.883 37.1454 134.131 45.5187C140.813 49.6879 146.943 53.7768 147.122 62.477C147.426 77.3131 132.512 87.2387 119.416 87.507C111.448 87.6702 102.585 84.3702 102.394 75.029C102.152 63.215 118.269 58.3955 127.336 58.2097C130.358 58.1478 132.889 60.9362 132.949 63.8668C133.114 71.9259 116.809 67.5874 116.927 73.357C116.955 74.7307 118.615 75.2464 119.622 75.2257C125.758 75.1 135.426 68.4886 135.279 61.3453C135.084 51.8209 121.563 58.1448 121.383 49.353C121.336 47.0635 122.561 44.2898 123.163 42.3535ZM116.953 25.4395C113.27 33.4858 118.113 37.3263 122.915 30.2648C130.308 19.9436 121.972 15.5334 116.953 25.4395Z" fill="white"/>
<path d="M160.357 43.2056C157.543 44.438 154.989 45.9588 151.421 45.777C144.743 45.4367 141.223 38.9286 141.553 32.4335C142.113 21.4557 154.393 9.05735 165.096 9.60276C169.396 9.82186 172.573 12.2767 175.548 15.0882C177.66 16.8467 177.548 19.0423 177.417 21.6037C176.974 30.2945 173.416 38.9182 171.071 47.1451C177.439 51.7804 183.262 56.2962 182.819 64.9869C182.064 79.8069 166.48 88.6433 153.398 87.9767C145.439 87.5711 136.834 83.6473 137.31 74.3162C137.911 62.5151 154.332 58.8576 163.388 59.3191C166.407 59.473 168.733 62.4348 168.584 65.3622C168.173 73.4125 152.219 67.9219 151.925 73.6852C151.855 75.0574 153.474 75.6902 154.48 75.7415C160.61 76.0538 170.724 70.1489 171.088 63.0134C171.573 53.4993 157.634 58.8425 158.082 50.0603C158.198 47.7732 159.619 45.0941 160.357 43.2056ZM155.37 25.8917C151.122 33.6548 155.678 37.8309 160.973 31.13C169.083 21.3625 161.083 16.3689 155.37 25.8917Z" fill="white"/>
<path d="M194.825 10.2866C191.254 29.4309 188.593 41.948 191.712 50.4907C192.617 53.1699 193.5 55.2018 193.351 56.5676C193.051 59.2993 190.93 61.002 188.471 60.7328C177.545 59.5362 178.544 32.7385 179.412 24.8166C180 19.4444 182.978 2.35449 190.353 3.1622C194.177 3.58102 195.244 6.46227 194.825 10.2866Z" fill="white"/>
<path d="M215.498 28.5668C212.879 28.1254 211.25 29.5229 210.072 31.5537C207.171 36.6384 204.97 46.3926 212.557 47.6714C218.248 48.6304 223.555 45.2518 225.813 45.6323C227.619 45.9368 228.971 47.8367 228.697 49.4626C228.043 53.3466 225.162 55.555 221.637 56.6329C207.624 60.9595 193.889 53.1642 196.462 37.899C198.152 27.8728 207.027 16.5495 217.866 18.3762C224.099 19.4266 230.774 25.5677 229.662 32.1615C228.627 38.3037 221.797 43.0048 215.835 42.0001C212.584 41.4521 210.676 38.994 211.239 35.6519C211.741 32.6711 213.535 31.9516 215.628 31.6542C218.957 31.1934 219.021 29.1605 215.498 28.5668Z" fill="white"/>
<path d="M244.091 57.5341C241.002 51.2365 234.175 45.4775 236.188 37.7668C238.271 29.7902 247.205 25.3068 254.916 27.3202C259.702 28.57 264.097 33.126 262.755 38.2665C262.084 40.8367 259.525 43.3872 256.6 42.6235C254.207 41.9986 254.304 39.0891 252.265 38.5568C250.316 38.0477 247.367 39.5499 246.812 41.677C245.909 45.1335 256.447 52.9974 254.017 62.3034C251.865 70.5458 242.986 71.9195 235.984 70.0911C232.616 69.2117 226.882 67.2411 228.016 62.8983C229.544 57.0488 239.327 60.5503 244.091 57.5341Z" fill="white"/>
</svg>
